<?xml version="1.0" encoding="iso-8859-1"?>
<!-- Generator: Adobe Illustrator 19.0.0, SVG Export Plug-In . SVG Version: 6.00 Build 0)  -->
<svg version="1.1" id="Capa_1" xmlns="http://www.w3.org/2000/svg" xmlns:xlink="http://www.w3.org/1999/xlink" x="0px" y="0px"
	 viewBox="0 0 512 512" style="enable-background:new 0 0 512 512;" xml:space="preserve">
<g>
	<g>
		<g>
			<path d="M458.156,426.385l-4.05-11.992l-15.856-11.382h-24.945l-15.856,11.382l-4.05,11.992h-27.38l-19.44,19.441v32.901H489.93
				v-32.901l-19.44-19.441H458.156z M474.929,463.728H361.578V452.04l10.654-10.654h31.933l5.951-17.621l8.015-5.753h15.292
				l8.016,5.753l5.951,17.621h16.885l10.654,10.654V463.728z"/>
			<path d="M127.833,297.868l-15.698-15.698H92.132l-2.807-8.312l-12.888-9.249h-19.94l-12.888,9.249l-2.807,8.312h-8.699
				l-15.698,15.698v27.356h111.428V297.868z M31.405,310.225v-6.144l6.911-6.911h13.252l4.707-13.939l5.046-3.621h10.29l5.046,3.622
				l4.707,13.938h24.557l6.911,6.911v6.144H31.405z"/>
			<rect x="423.81" y="27.5" width="62.45" height="15"/>
			<rect x="373.81" y="27.5" width="15" height="15"/>
			<rect x="398.81" y="27.5" width="15" height="15"/>
			<rect x="54.23" y="42.833" width="15" height="15"/>
			<rect x="79.23" y="42.833" width="15" height="15"/>
			<rect x="29.23" y="42.833" width="15" height="15"/>
			<rect x="263.5" y="341" width="15" height="15"/>
			<rect x="263.5" y="366" width="15" height="32"/>
			<rect x="263.5" y="316" width="15" height="15"/>
			<rect x="137" y="167.5" width="15" height="15"/>
			<rect x="137" y="192.5" width="15" height="15"/>
			<rect x="137" y="217.5" width="15" height="50.25"/>
			<rect x="180" y="228.46" width="15" height="60"/>
			<rect x="180" y="180.86" width="15" height="32.605"/>
			<rect x="359.15" y="248.46" width="15" height="15"/>
			<rect x="359.15" y="273.46" width="15" height="15"/>
			<rect x="359.15" y="184.54" width="15" height="53.926"/>
			<rect x="317" y="136.72" width="15" height="107.61"/>
			<path d="M0,0l0.007,159.673l13.175-15.248c0.18-0.208,18.414-21.071,54.894-42.473c33.626-19.727,90.112-43.975,168.259-47.467
				l-0.67-14.984c-81.583,3.645-140.647,29.146-175.83,49.896C39.459,101.415,24.588,113.165,15,121.682V15h233.5v61.5h-15.667
				v62.667H248.5v43.86h-37.666V363.06L159.5,311.726l-31.914,31.914l81.401,81.401h10.976
				c-9.216,9.226-14.924,21.958-14.924,35.998C205.039,489.139,227.9,512,256,512c28.1,0,50.961-22.861,50.961-50.961
				c0-14.04-5.708-26.772-14.924-35.998h10.976l81.401-81.401L352.5,311.726l-51.334,51.335V183.028H263.5v-43.86h15.667V76.5H263.5
				V15H497v106.682c-9.588-8.517-24.459-20.267-44.835-32.284c-35.183-20.751-94.248-46.252-175.83-49.896l-0.67,14.984
				c78.147,3.492,134.633,27.74,168.259,47.467c36.479,21.401,54.714,42.265,54.887,42.465L512,159.768V0H0z M225.834,198.027
				h15.133V214h-15.133V198.027z M256,497c-19.829,0-35.961-16.132-35.961-35.961c0-4.245,0.745-8.319,2.101-12.103
				c1.127,0.679,1.889,1.903,1.889,3.312v12.837c0,6.9,5.614,12.515,12.515,12.515h38.91c6.901,0,12.515-5.614,12.515-12.515
				v-12.837c0-1.409,0.763-2.633,1.889-3.312c1.357,3.784,2.101,7.858,2.101,12.103C291.961,480.868,275.829,497,256,497z
				 M230.037,436.195c6.551-6.843,15.764-11.117,25.963-11.117c10.199,0,19.412,4.274,25.963,11.117
				c-5.385,3.329-8.992,9.27-8.992,16.053V462.6h-33.94v-10.352C239.03,445.465,235.422,439.524,230.037,436.195z M352.5,332.938
				l10.701,10.701L296.8,410.041h-81.6l-66.401-66.401l10.701-10.701l66.334,66.335V255.5h15.133v47.026h30.067V255.5h15.133
				v143.773L352.5,332.938z M271.034,198.027h15.133V214h-15.133V198.027z M286.167,229v11.5h-60.333V229H286.167z M264.167,91.5
				v32.667h-16.333V91.5H264.167z"/>
		</g>
	</g>
</g>
<g>
</g>
<g>
</g>
<g>
</g>
<g>
</g>
<g>
</g>
<g>
</g>
<g>
</g>
<g>
</g>
<g>
</g>
<g>
</g>
<g>
</g>
<g>
</g>
<g>
</g>
<g>
</g>
<g>
</g>
</svg>
