<svg height="512" viewBox="0 0 60 55" width="512" xmlns="http://www.w3.org/2000/svg"><g id="Page-1" fill="none" fill-rule="evenodd"><g id="020---Kids-Whale-Slide" fill="rgb(0,0,0)" fill-rule="nonzero" transform="translate(-1)"><path id="Shape" d="m53 35.959c.2676231.0081197.5267221-.0946275.7160473-.2839527s.2920724-.4484242.2839527-.7160473c.0004457-.2604329-.105157-.5098234-.2924904-.6907425-.1873333-.1809191-.4402502-.2777727-.7005096-.2682575-.5289195.0149044-.9504986.4469833-.9523893.9761094-.0018907.529126.4165898.9642067.9453893.9828906z"/><path id="Shape" d="m36.48.028c-2.5322696.17873703-4.66027 1.97024843-5.268 4.435-.6926624 2.4235116.3191376 5.0111327 2.472 6.322 1.057.7 2.17 1.34 3.118 1.875 2.3 1.3 3.973 2.387 4.482 4.567.1013085.4350429.4788523.7501389.925.772h.049c.4282854.0001115.8090921-.2725252.947-.678.4053208-1.2840589.643285-2.6150449.708-3.96.3-4.1-.163-7.162-1.484-9.922-1.0702658-2.27315852-3.4465518-3.63565836-5.949-3.411zm5.439 13.191c-.019.247-.038.5-.064.752-1.1533088-1.2644697-2.5343603-2.3005128-4.071-3.054-.918-.517-1.992-1.136-3-1.8-1.4395281-.83458151-2.1176818-2.54837793-1.639-4.142.3981986-1.65665773 1.8340191-2.85730421 3.535-2.956.1239225-.01276148.2484222-.01910329.373-.019 1.5326957.01912939 2.919673.91244998 3.571 2.3 1.2248815 2.80273212 1.6722174 5.8836501 1.295 8.919z"/><path id="Shape" d="m46.685 10.08c-1.2050436 2.0986113-1.7893739 4.4962726-1.685 6.914-.0022059.423486.2625827.802442.661.946.108541.0399702.2233338.0602875.339.06.2994715-.0000998.5831351-.1344088.773-.366.5556413-.8620883 1.4231443-1.4758978 2.421-1.713l.519-.181c.681-.238 1.385-.483 2.071-.776.8485563-.3106775 1.538531-.946371 1.9175425-1.7666871.3790116-.8203161.4158781-1.757766.1024575-2.6053129-.5357879-1.74609867-2.2689163-2.83701263-4.075-2.565-1.2873634.1507266-2.4218892.91589791-3.044 2.053zm3.263-.065c.0923008-.0103461.1851219-.01535442.278-.015.7712326-.03956479 1.4667416.4610853 1.674 1.205.1587979.3723798.151353.7947902-.0204686 1.1613429-.1718215.3665526-.4917299.6424958-.8795314.7586571-.624.266-1.266.489-1.944.726l-.527.185c-.4646917.1542423-.9175525.3420709-1.355.562.1657426-1.2287285.580177-2.410785 1.218-3.474.2998459-.6072347.8841636-1.0236925 1.556-1.109z"/><path id="Shape" d="m2 47c-.55228475 0-1 .4477153-1 1s.44771525 1 1 1c1.59300721.0032686 3.12396445-.6173703 4.265-1.729.7824448-.8122287 1.86169888-1.2711231 2.9895-1.2711231 1.1278011 0 2.2070552.4588944 2.9895 1.2711231 2.3748582 2.3054024 6.1521418 2.3054024 8.527 0 .7817481-.8120029 1.8603448-1.2708128 2.9875-1.2708128s2.2057519.4588099 2.9875 1.2708128c2.374181 2.305158 6.150819 2.305158 8.525 0 .7813996-.8118901 1.8596678-1.2706579 2.9865-1.2706579s2.2051004.4587678 2.9865 1.2706579c2.3730773 2.3059647 6.1499227 2.3059647 8.523 0 .7810511-.8117774 1.8589906-1.270503 2.9855-1.270503s2.2044489.4587256 2.9855 1.270503c1.1395787 1.111995 2.669782 1.732765 4.262 1.729.5522847 0 1-.4477153 1-1s-.4477153-1-1-1c-1.0489017.016244-2.060466-.3890302-2.808-1.125.4067242-.3298161.7696604-.7102269 1.08-1.132.4201711-.5847791.7768503-1.2126551 1.064-1.873 1.6835915-3.947735 2.1224679-8.3152175 1.258-12.519-.6126474-4.1554253-3.5044814-7.6159674-7.485-8.957-4.1739471-1.4908807-8.6859146-1.7634925-13.009-.786-1.4013328.3042446-2.7732622.7308812-4.1 1.275v-.883c0-.5522847-.4477153-1-1-1s-1 .4477153-1 1v1.767c-1.8779282.9468743-3.7002303 2.0002571-5.458 3.155-.185.118-.36.245-.542.366v-5.288c0-.5522847-.4477153-1-1-1s-1 .4477153-1 1v6.7c-3.2454791 2.5388625-6.2769988 5.3399412-9.064 8.375-.3659938.4732286-.88361.8061837-1.466.943h-.03c-.2472991-.0507629-.4614044-.2041627-.589-.422-.4386272-.598449-.521156-1.3866755-.216-2.063.4039784-.5849696.9652794-1.0436485 1.619-1.323.4472155-.2398458.8751643-.5140005 1.28-.82 1.3908449-1.1399022 2.4131273-2.6660188 2.938-4.386.1494928-.4716749.274987-.9506224.376-1.435.018-.086.042-.179.066-.276.1173419-.3917942.1749888-.7990307.171-1.208-.0119826-.3647966-.1879936-.7046925-.479-.925-.3094931-.2256874-.7058624-.2958086-1.074-.19-.7800758.152049-1.5732528.2267443-2.368.223-.561.017-1.123.035-1.682.1-1.7670627.1320686-3.4298328.8872611-4.692 2.131-1.12780855-1.9722805-2.9751722-3.4315366-5.155-4.072l-.387-.135c-.73649467-.218652-1.4421648-.530155-2.1-.927-.35798512-.2950217-.84967287-.3681208-1.278-.19-.44047426.2327471-.71829249.6878472-.724 1.186-.29672956 1.9537712-.17607962 3.9482443.354 5.852.48111185 1.5456632 1.33204691 2.9506157 2.479 4.093.53233533.5088451 1.1044905.9743273 1.711 1.392l.4.293c.42579633.2783048.77071543.6639244 1 1.118.02492531.0496385.04598768.1011243.063.154.11874328.7585589.18556528 1.5243391.2 2.292.018.382.034.706.052.893.12121241 1.925759.4631177 3.8312351 1.019 5.679-1.29443404.187338-2.49827534.773529-3.444 1.677-.77795822.8130232-1.8547338 1.2722788-2.98 1.271zm26-9h6v4h-6zm6-2h-6v-4h6zm-2.99 11c-1.1283425.003508-2.2087474-.455908-2.989-1.271l-.021-.017v-1.712h6v1.727c-.779877.816476-1.8609175 1.2767317-2.99 1.273zm9.5-24.435c3.9504503-.8998196 8.075384-.6570337 11.893.7 3.306483 1.1141697 5.7089529 3.9883256 6.219 7.44.5380845 2.7590956.4961967 5.5999681-.123 8.342-3.5753929 1.5208637-7.6754833 1.1452255-10.915-1-.2886706-.2106081-.6677713-.251214-.9944985-.106522-.3267273.1446921-.5514434.4526999-.5895.808-.0380567.3553001.1163279.7039139.4049985.914522 2.2623771 1.5132398 4.9192441 2.328972 7.641 2.346 1.2497342-.0018339 2.4925061-.1861105 3.689-.547-.079.2-.15.407-.237.607-.2278357.5261548-.5114584 1.02635-.846 1.492-.3121046.4424551-.7189871.8097085-1.191 1.075-.8353946-.4348068-1.7663863-.6534592-2.708-.636-1.5923593-.0034977-3.1225819.6176392-4.262 1.73-.7810511.8117774-1.8589906 1.270503-2.9855 1.270503s-2.2044489-.4587256-2.9855-1.270503c-1.1393496-1.1118449-2.669049-1.7329151-4.261-1.73-.7742335-.0097971-1.5425096.136444-2.259.43v-20.385c1.4499455-.6467906 2.9625712-1.1427334 4.514-1.48zm-10.89 5.041c1.4-.893 2.852-1.786 4.38-2.589v4.983h-6v-1.3c.528-.374 1.068-.7386667 1.62-1.094zm-22.346 4.694-.4-.3c-.52148235-.3552227-1.01432448-.7507669-1.474-1.183-.91994877-.9093023-1.60081629-2.0319436-1.982-3.268-.37307233-1.3127018-.5005427-2.6830084-.376-4.042.50693401.2259245 1.02492327.426178 1.552.6l.37.129c2.557.922 3.942 2.234 4.494 4.253.14122418.5096029.6547923.8211617 1.172.711.4322145-.0876111.8087707-.3504763 1.04-.726.9374472-1.308114 2.4197564-2.1179179 4.027-2.2.508-.054 1.018-.069 1.528-.085.548-.016 1.109-.033 1.679-.1 0 .021-.009.042-.013.062-.086503.4163504-.1946497.8279088-.324 1.233-.4049603 1.3435692-1.1973831 2.5377691-2.278 3.433-.3254577.2406331-.6680332.4572076-1.025.648-1.0205988.4573632-1.8714345 1.2242349-2.432 2.192-.6253207 1.3536711-.4623664 2.9406543.425 4.139.4698036.6966173 1.2305946 1.1421288 2.068 1.211 1.1959274-.0426879 2.3128172-.6082618 3.055-1.547 2.3827824-2.5689053 4.9280159-4.9822009 7.62-7.225v14.188c-.7117672-.2886921-1.473973-.4324981-2.242-.423-1.5909339-.0022368-3.1194524.6187912-4.258 1.73-.7818898.8117432-1.8604336 1.2703712-2.9875 1.2703712s-2.2056102-.458628-2.9875-1.2703712c-.8277348-.7745567-1.8414617-1.3222379-2.943-1.59-.031-.077-.064-.151-.1-.23-.61859059-1.8507869-.98259304-3.7771068-1.082-5.726-.015-.169-.029-.458-.046-.8.00752147-.959026-.09583102-1.9157076-.308-2.851-.04240572-.1279826-.09421353-.2526556-.155-.373-.36916207-.7493489-.9262847-1.390195-1.617-1.86z"/><path id="Shape" d="m60 53c-1.127468.0035088-2.206944-.4559735-2.986-1.271-2.3730773-2.3059647-6.1499227-2.3059647-8.523 0-.7810511.8117774-1.8589906 1.270503-2.9855 1.270503s-2.2044489-.4587256-2.9855-1.270503c-2.3734161-2.3060867-6.1505839-2.3060867-8.524 0-.7818898.8117432-1.8604336 1.2703712-2.9875 1.2703712s-2.2056102-.458628-2.9875-1.2703712c-2.3743066-2.3058053-6.1516934-2.3058053-8.526 0-.7818898.8117432-1.8604336 1.2703712-2.9875 1.2703712s-2.2056102-.458628-2.9875-1.2703712c-2.376425-2.3053672-6.15457497-2.3053672-8.531 0-.78011622.8152894-1.86060995 1.2747432-2.989 1.271-.55228475 0-1 .4477153-1 1s.44771525 1 1 1c1.59300721.0032686 3.12396445-.6173703 4.265-1.729.7824448-.8122287 1.86169888-1.2711231 2.9895-1.2711231 1.1278011 0 2.2070552.4588944 2.9895 1.2711231 2.3748582 2.3054024 6.1521418 2.3054024 8.527 0 .7817481-.8120029 1.8603448-1.2708128 2.9875-1.2708128s2.2057519.4588099 2.9875 1.2708128c2.374181 2.305158 6.150819 2.305158 8.525 0 .7813996-.8118901 1.8596678-1.2706579 2.9865-1.2706579s2.2051004.4587678 2.9865 1.2706579c2.3730773 2.3059647 6.1499227 2.3059647 8.523 0 .7810511-.8117774 1.8589906-1.270503 2.9855-1.270503s2.2044489.4587256 2.9855 1.270503c1.1395787 1.111995 2.669782 1.732765 4.262 1.729.5522847 0 1-.4477153 1-1s-.4477153-1-1-1z"/></g></g></svg>