<?xml version="1.0" encoding="iso-8859-1"?>
<!-- Generator: Adobe Illustrator 19.0.0, SVG Export Plug-In . SVG Version: 6.00 Build 0)  -->
<svg version="1.1" id="Capa_1" xmlns="http://www.w3.org/2000/svg" xmlns:xlink="http://www.w3.org/1999/xlink" x="0px" y="0px"
	 viewBox="0 0 512 512" style="enable-background:new 0 0 512 512;" xml:space="preserve">
<g>
	<g>
		<path d="M468.998,461.5h-28v-28.003c0-4.142-3.357-7.5-7.5-7.5h-10.25v-27.999c0-4.142-3.357-7.5-7.5-7.5h-10.245V263.499h10.245
			c4.143,0,7.5-3.358,7.5-7.5v-28h10.25c4.143,0,7.5-3.358,7.5-7.5v-28h28c3.157,0,5.978-1.978,7.052-4.947
			c1.075-2.969,0.176-6.293-2.25-8.315L260.801,1.738c-2.782-2.317-6.822-2.317-9.603,0l-212.997,177.5
			c-2.426,2.021-3.326,5.346-2.251,8.315s3.895,4.947,7.052,4.947h28v28c0,4.142,3.358,7.5,7.5,7.5H88.75v28
			c0,4.142,3.358,7.5,7.5,7.5h10.25v126.999H96.25c-4.142,0-7.5,3.358-7.5,7.5v27.999H78.502c-4.142,0-7.5,3.358-7.5,7.5V461.5h-28
			c-4.142,0-7.5,3.358-7.5,7.5v35.5c0,4.142,3.358,7.5,7.5,7.5h425.996c4.143,0,7.5-3.358,7.5-7.5V469
			C476.498,464.858,473.141,461.5,468.998,461.5z M408.248,405.498v20.499h-55.999v-20.499h10.25h35.504H408.248z M291.5,319.497
			h-71c-4.142,0-7.5,3.358-7.5,7.5v99h-38.25v-27.999c0-4.142-3.358-7.5-7.5-7.5h-10.246V263.499h10.246c4.142,0,7.5-3.358,7.5-7.5
			v-28h162.499v28c0,4.142,3.357,7.5,7.5,7.5h10.25v126.999h-10.25c-4.143,0-7.5,3.358-7.5,7.5v27.999H299v-99
			C299,322.855,295.643,319.497,291.5,319.497z M284,334.497v91.5h-56v-91.5H284z M369.999,390.498V263.499h20.504v126.999H369.999z
			 M408.248,248.499h-10.226c-0.006,0-0.013-0.001-0.019-0.001h-35.504c-0.007,0-0.013,0.001-0.019,0.001h-10.231v-20.5h55.999
			V248.499z M75.871,177.499H63.717L255.999,17.262l192.283,160.237H436.13L260.685,37.145c-2.739-2.191-6.631-2.192-9.371,0
			L75.871,177.499z M96.249,212.999H86.002v-20.5h81.248c0.003,0,0.006,0,0.01,0h18.816c4.142,0,7.5-3.358,7.5-7.5
			c0-4.142-3.358-7.5-7.5-7.5H99.883L256,52.606l156.117,124.893H219.426c-4.142,0-7.5,3.358-7.5,7.5c0,4.142,3.358,7.5,7.5,7.5
			h18.814c0.003,0,0.006,0,0.01,0h187.749v20.5h-10.25H344.75H167.249H96.249z M103.75,248.499v-20.5h56v20.5h-10.226
			c-0.007,0-0.013-0.001-0.019-0.001H114c-0.007,0-0.013,0.001-0.019,0.001H103.75z M142.004,263.499v126.999H121.5V263.499H142.004
			z M103.75,405.498H114h35.504h10.246v20.499h-56V405.498z M461.498,497H50.502v-20.5h313.072c4.143,0,7.5-3.358,7.5-7.5v-0.001
			v-0.001c0-4.142-3.357-7.5-7.5-7.5H86.002v-20.5h10.219c0.01,0,0.019,0.001,0.029,0.001h71c0.01,0,0.019-0.001,0.029-0.001h53.192
			c0.01,0,0.019,0.001,0.029,0.001h71c0.01,0,0.019-0.001,0.029-0.001h53.191c0.01,0,0.019,0.001,0.029,0.001h70.999
			c0.01,0,0.019-0.001,0.029-0.001h10.221v20.5h-29.074c-4.143,0-7.5,3.358-7.5,7.5v0.001V469c0,4.142,3.357,7.5,7.5,7.5h64.574V497
			z"/>
	</g>
</g>
<g>
	<g>
		<path d="M291.5,248.498h-71.001c-4.142,0-7.5,3.358-7.5,7.5v35.501c0,4.142,3.358,7.5,7.5,7.5H291.5c4.143,0,7.5-3.358,7.5-7.5
			v-35.501C299,251.856,295.642,248.498,291.5,248.498z M284,283.999h-56.001v-20.501H284V283.999z"/>
	</g>
</g>
<g>
	<g>
		<path d="M256,88.751c-18.817,0-34.125,15.309-34.125,34.125c-0.001,18.816,15.308,34.125,34.125,34.125
			c18.816,0,34.125-15.309,34.125-34.125C290.125,104.059,274.816,88.751,256,88.751z M256,142c-10.546,0-19.125-8.58-19.125-19.125
			c-0.001-10.545,8.579-19.125,19.125-19.125c10.546,0,19.125,8.58,19.125,19.125S266.546,142,256,142z"/>
	</g>
</g>
<g>
</g>
<g>
</g>
<g>
</g>
<g>
</g>
<g>
</g>
<g>
</g>
<g>
</g>
<g>
</g>
<g>
</g>
<g>
</g>
<g>
</g>
<g>
</g>
<g>
</g>
<g>
</g>
<g>
</g>
</svg>
