<svg id="Capa_1" enable-background="new 0 0 512.001 512.001" height="512" viewBox="0 0 512.001 512.001" width="512" xmlns="http://www.w3.org/2000/svg"><g><g><g><path d="m193.552 117.026c-4.142 0-7.5-3.357-7.5-7.5v-12c0-4.143 3.358-7.5 7.5-7.5s7.5 3.357 7.5 7.5v12c0 4.142-3.358 7.5-7.5 7.5z"/></g><g><path d="m318.449 117.026c-4.142 0-7.5-3.357-7.5-7.5v-12c0-4.143 3.358-7.5 7.5-7.5s7.5 3.357 7.5 7.5v12c0 4.142-3.357 7.5-7.5 7.5z"/></g><g><path d="m256.001 124.169c-8.478 0-16.54-3.671-22.119-10.072-2.721-3.123-2.396-7.86.727-10.582 3.123-2.721 7.86-2.396 10.582.727 2.729 3.132 6.669 4.928 10.81 4.928s8.081-1.796 10.81-4.928c2.721-3.123 7.458-3.448 10.582-.727 3.123 2.722 3.448 7.459.727 10.582-5.579 6.402-13.641 10.072-22.119 10.072z"/></g></g><path d="m492.001 458.05v-164.903c11.528-3.274 20-13.888 20-26.452s-8.472-23.178-20-26.452v-13.548c0-15.163-12.336-27.5-27.5-27.5h-26v-12.5c0-15.163-12.336-27.5-27.5-27.5h-26.18c3.668-9.661 5.584-20.006 5.584-30.397 0-28.902-14.436-55.609-38.615-71.442l-80.723-52.86c-9.152-5.994-20.979-5.994-30.131 0l-80.724 52.859c-24.179 15.833-38.615 42.54-38.615 71.442 0 10.387 1.92 20.737 5.587 30.397h-26.183c-15.164 0-27.5 12.337-27.5 27.5v12.5h-26c-15.164 0-27.5 12.337-27.5 27.5v13.548c-11.528 3.274-20 13.888-20 26.452s8.472 23.178 20 26.452v164.904c-11.528 3.274-20 13.888-20 26.452 0 15.164 12.336 27.5 27.5 27.5h457c15.164 0 27.5-12.336 27.5-27.5 0-12.564-8.472-23.179-20-26.452zm-59.25-1.049h-65v-41.403c0-17.921 14.58-32.5 32.5-32.5s32.5 14.579 32.5 32.5zm-32.5-88.903c-26.191 0-47.5 21.309-47.5 47.5v41.403h-29.25v-61.403c0-37.22-30.28-67.5-67.5-67.5s-67.5 30.28-67.5 67.5v14.451c0 4.143 3.358 7.5 7.5 7.5s7.5-3.357 7.5-7.5v-14.451c0-28.948 23.551-52.5 52.5-52.5s52.5 23.552 52.5 52.5v61.403h-105v-16.952c0-4.143-3.358-7.5-7.5-7.5s-7.5 3.357-7.5 7.5v16.952h-29.25v-41.403c0-26.191-21.309-47.5-47.5-47.5s-47.5 21.309-47.5 47.5v41.403h-29.25v-162.806h442v162.807h-29.25v-41.403c0-26.192-21.309-47.501-47.5-47.501zm-256 88.903h-65v-41.403c0-17.921 14.58-32.5 32.5-32.5s32.5 14.579 32.5 32.5zm-55.75-270.306c0-6.893 5.607-12.5 12.5-12.5h202.449c4.142 0 7.5-3.357 7.5-7.5s-3.358-7.5-7.5-7.5h-159.97c-4.567-9.507-6.882-19.723-6.882-30.397 0-23.825 11.9-45.842 31.832-58.894l80.725-52.859c4.159-2.725 9.535-2.725 13.695 0l80.724 52.859c19.932 13.052 31.832 35.068 31.832 58.894 0 10.68-2.317 20.893-6.884 30.397h-35.071c-4.142 0-7.5 3.357-7.5 7.5s3.358 7.5 7.5 7.5h77.551c6.893 0 12.5 5.607 12.5 12.5v12.5h-335v-12.5zm-41 27.5h417c6.893 0 12.5 5.607 12.5 12.5v12.5h-442v-12.5c0-6.893 5.607-12.5 12.5-12.5zm-32.5 52.5c0-6.893 5.607-12.5 12.5-12.5h457c6.893 0 12.5 5.607 12.5 12.5s-5.607 12.5-12.5 12.5h-457c-6.893 0-12.5-5.608-12.5-12.5zm469.5 230.306h-457c-6.893 0-12.5-5.607-12.5-12.5s5.607-12.5 12.5-12.5h457c6.893 0 12.5 5.607 12.5 12.5s-5.608 12.5-12.5 12.5z"/></g></svg>